<?xml version="1.0" encoding="UTF-8"?>
<!DOCTYPE svg PUBLIC "-//W3C//DTD SVG 1.1//EN" "http://www.w3.org/Graphics/SVG/1.1/DTD/svg11.dtd">
<!-- Creator: CorelDRAW X7 -->
<svg xmlns="http://www.w3.org/2000/svg" xml:space="preserve" width="210mm" height="297mm" version="1.1" style="shape-rendering:geometricPrecision; text-rendering:geometricPrecision; image-rendering:optimizeQuality; fill-rule:evenodd; clip-rule:evenodd"
viewBox="0 0 21000 29700"
 xmlns:xlink="http://www.w3.org/1999/xlink">
 <defs>
    <clipPath id="id0">
     <path d="M2907 4328l13955 303 0 2889 -13955 -303 0 -2889z"/>
    </clipPath>
   <clipPath id="id1" style="clip-rule:nonzero">
    <path d="M4603 4568l39 616 -39 0c-52,-185 -127,-318 -225,-399 -97,-81 -214,-121 -350,-121 -114,0 -218,30 -310,91 -92,61 -165,159 -218,293 -52,133 -79,300 -79,499 0,164 25,306 75,427 50,120 125,212 225,277 101,64 215,96 343,96 112,0 211,-25 296,-76 86,-50 180,-150 282,-299l40 27c-87,161 -188,279 -303,354 -115,74 -252,111 -411,111 -285,0 -507,-111 -663,-334 -117,-166 -176,-361 -176,-586 0,-181 39,-347 116,-499 77,-151 183,-269 318,-352 135,-84 282,-125 442,-125 125,0 247,32 369,96 35,20 61,30 76,30 22,0 42,-9 59,-26 23,-24 38,-57 47,-100l47 0zm852 -8c177,0 319,70 426,211 91,120 137,258 137,414 0,109 -26,220 -76,333 -50,112 -119,197 -207,254 -88,57 -186,85 -294,85 -176,0 -316,-74 -419,-220 -88,-125 -132,-263 -132,-417 0,-113 27,-224 80,-335 53,-111 123,-193 210,-246 87,-53 178,-79 275,-79zm-39 87c-45,0 -90,14 -136,42 -45,28 -82,77 -110,148 -28,70 -42,160 -42,270 0,178 34,332 101,461 68,129 157,193 267,193 82,0 150,-35 204,-107 53,-71 80,-193 80,-366 0,-217 -45,-388 -134,-513 -60,-85 -137,-128 -230,-128zm1087 515l0 276c97,-184 197,-276 299,-276 46,0 84,15 115,45 30,30 45,64 45,103 0,36 -11,65 -32,89 -23,25 -49,36 -79,36 -29,0 -62,-15 -99,-46 -37,-31 -64,-47 -82,-47 -15,0 -31,9 -49,27 -38,37 -78,97 -118,181l0 586c0,68 8,120 24,155 11,24 31,44 59,59 28,16 68,24 121,24l0 49 -598 0 0 -49c59,0 103,-9 132,-29 21,-15 36,-37 44,-68 4,-16 7,-59 7,-130l0 -473c0,-143 -3,-227 -9,-255 -5,-26 -15,-47 -30,-59 -15,-12 -34,-19 -55,-19 -27,0 -56,7 -89,21l-13 -50 353 -150 54 0zm746 1073c-1,181 42,322 126,426 85,102 185,154 300,154 76,0 143,-22 199,-66 57,-43 104,-119 143,-227l39 27c-18,123 -70,235 -156,335 -85,100 -193,150 -321,150 -140,0 -261,-57 -360,-172 -100,-114 -150,-268 -150,-461 0,-209 52,-372 154,-489 102,-117 230,-176 385,-176 130,0 238,46 322,136 83,90 126,211 126,363l-807 0zm0 -77l540 0c-4,-79 -13,-134 -26,-166 -21,-49 -53,-89 -95,-117 -42,-29 -86,-43 -132,-43 -71,0 -134,29 -189,86 -56,58 -88,138 -98,240zm1341 -1637l0 1626c0,76 5,127 16,151 11,25 27,44 49,57 22,13 63,19 123,19l0 49 -571 0 0 -49c53,0 90,-6 109,-17 20,-12 35,-31 46,-57 11,-27 17,-78 17,-153l0 -1114c0,-137 -3,-221 -9,-252 -6,-31 -16,-53 -29,-64 -13,-11 -30,-17 -50,-17 -22,0 -50,7 -84,21l-21 -49 347 -151 57 0zm284 1902l0 -49 65 0c73,0 125,-25 155,-73 19,-30 28,-96 28,-198l0 -1174c0,-113 -12,-184 -36,-212 -33,-39 -82,-59 -147,-59l-65 0 0 -49 703 0c259,0 455,30 590,92 135,62 243,164 325,308 82,144 123,310 123,498 0,252 -73,463 -219,633 -164,189 -414,283 -750,283l-772 0zm493 -133c108,25 198,38 271,38 197,0 360,-73 490,-218 130,-145 194,-343 194,-591 0,-251 -64,-448 -194,-592 -130,-145 -297,-217 -500,-217 -76,0 -163,13 -261,39l0 1541zm1877 -1511l0 276c97,-184 197,-276 299,-276 46,0 84,15 115,45 30,29 45,64 45,103 0,35 -11,65 -32,89 -22,24 -49,36 -79,36 -29,0 -62,-15 -99,-46 -37,-31 -64,-47 -82,-47 -15,0 -31,9 -49,27 -38,37 -78,97 -118,181l0 586c0,68 8,120 24,155 11,24 31,44 59,59 28,16 68,24 121,24l0 49 -598 0 0 -49c59,0 103,-10 132,-29 21,-15 36,-37 44,-69 4,-15 7,-58 7,-129l0 -474c0,-142 -3,-226 -9,-254 -5,-27 -15,-47 -30,-59 -15,-12 -34,-19 -55,-19 -27,0 -56,7 -89,20l-13 -49 354 -150 53 0zm1080 1466c-119,98 -194,154 -225,169 -46,23 -95,34 -146,34 -81,0 -148,-29 -200,-87 -52,-58 -78,-134 -78,-229 0,-59 12,-111 38,-155 35,-60 95,-117 181,-171 87,-54 230,-119 430,-195l0 -48c0,-122 -18,-206 -55,-251 -37,-45 -90,-68 -161,-68 -53,0 -95,15 -127,45 -32,31 -48,65 -48,104l3 78c0,41 -10,73 -30,95 -20,23 -47,34 -79,34 -32,0 -58,-12 -78,-35 -20,-23 -30,-55 -30,-95 0,-77 37,-148 112,-212 75,-64 180,-96 315,-96 104,0 189,18 256,54 50,28 87,71 111,130 15,38 23,116 23,234l0 416c0,116 2,187 6,213 5,27 12,44 21,53 10,9 21,14 34,14 14,0 26,-4 36,-10 18,-11 52,-44 104,-97l0 75c-96,134 -187,201 -274,201 -42,0 -76,-15 -100,-45 -25,-30 -38,-82 -39,-155zm0 -87l0 -465c-129,53 -212,91 -250,113 -67,39 -115,80 -145,123 -29,43 -43,89 -43,140 0,64 18,117 55,160 37,42 79,63 127,63 65,0 150,-45 256,-134zm434 -961l489 0 0 50c-45,3 -75,11 -88,25 -15,13 -22,33 -22,58 0,27 8,61 22,100l252 704 253 -575 -67 -179c-20,-53 -47,-90 -80,-111 -19,-12 -54,-20 -104,-22l0 -50 552 0 0 50c-60,2 -102,14 -127,35 -16,15 -24,38 -24,70 0,17 3,35 10,52l264 700 245 -674c18,-48 26,-87 26,-115 0,-17 -8,-32 -24,-46 -17,-13 -50,-21 -99,-22l0 -50 367 0 0 50c-74,11 -128,63 -163,156l-389 1056 -52 0 -292 -784 -344 784 -45 0 -376 -1029c-24,-65 -48,-109 -72,-132 -24,-23 -62,-40 -112,-51l0 -50z"/>
   </clipPath>
 </defs>
 <g id="Слой_x0020_1">
  <metadata id="CorelCorpID_0Corel-Layer"/>
  <g id="_2040580480288">
   <g style="clip-path:url(#id0)">
    <image x="2907" y="4328" width="13955" height="3192" xlink:href="ex2_3_Images\ex2_3_ImgID1.png"/>
   </g>
  </g>
  <g style="clip-path:url(#id1)">
   <image x="3129" y="4521" width="11474" height="2512" xlink:href="ex2_3_Images\ex2_3_ImgID2.png"/>
  </g>
 </g>
</svg>
